<svg width="1039" height="242" viewBox="0 0 1039 242" fill="none" xmlns="http://www.w3.org/2000/svg">
<path d="M394.883 187V53.0363H438.008C446.328 53.0363 453.546 54.6879 459.663 57.9912C465.78 61.172 470.49 65.6986 473.793 71.571C477.219 77.4434 478.932 84.4169 478.932 92.4914C478.932 100.444 477.219 107.417 473.793 113.412C470.49 119.284 465.78 123.872 459.663 127.175C453.546 130.356 446.328 131.946 438.008 131.946H411.399V187H394.883ZM411.399 117.082H438.008C445.227 117.082 450.977 114.88 455.259 110.476C459.663 105.949 461.865 99.9542 461.865 92.4914C461.865 84.9062 459.663 78.9115 455.259 74.5072C450.977 70.1029 445.227 67.9008 438.008 67.9008H411.399V117.082ZM543.089 188.835C535.014 188.835 528.041 187.306 522.169 184.247C516.419 181.189 511.953 176.785 508.772 171.034C505.714 165.162 504.184 158.25 504.184 150.298V89.7387C504.184 81.6642 505.714 74.7519 508.772 69.0019C511.953 63.2518 516.419 58.8475 522.169 55.789C528.041 52.7305 535.014 51.2012 543.089 51.2012C551.164 51.2012 558.076 52.7305 563.826 55.789C569.698 58.8475 574.164 63.2518 577.222 69.0019C580.403 74.7519 581.994 81.603 581.994 89.5552V150.298C581.994 158.25 580.403 165.162 577.222 171.034C574.164 176.785 569.698 181.189 563.826 184.247C558.076 187.306 551.164 188.835 543.089 188.835ZM543.089 173.971C550.307 173.971 555.812 171.952 559.605 167.915C563.52 163.755 565.477 157.883 565.477 150.298V89.7387C565.477 82.1535 563.52 76.3423 559.605 72.3051C555.812 68.1455 550.307 66.0657 543.089 66.0657C535.993 66.0657 530.488 68.1455 526.573 72.3051C522.658 76.3423 520.701 82.1535 520.701 89.7387V150.298C520.701 157.883 522.658 163.755 526.573 167.915C530.488 171.952 535.993 173.971 543.089 173.971ZM614.954 187V53.0363H649.638C658.324 53.0363 665.787 54.6879 672.026 57.9912C678.388 61.2944 683.282 65.9433 686.707 71.9381C690.255 77.9328 692.029 85.0286 692.029 93.2254V146.627C692.029 154.824 690.255 161.981 686.707 168.098C683.282 174.093 678.388 178.742 672.026 182.045C665.787 185.348 658.324 187 649.638 187H614.954ZM631.47 172.319H649.638C657.712 172.319 664.013 170.056 668.539 165.529C673.188 161.002 675.513 154.702 675.513 146.627V93.2254C675.513 85.2732 673.188 79.0338 668.539 74.5072C664.013 69.9806 657.712 67.7173 649.638 67.7173H631.47V172.319ZM729.21 187V53.0363H745.726V171.952H806.285V187H729.21ZM873.195 188.835C865.121 188.835 858.147 187.306 852.275 184.247C846.525 181.189 842.059 176.785 838.879 171.034C835.82 165.162 834.291 158.25 834.291 150.298V89.7387C834.291 81.6642 835.82 74.7519 838.879 69.0019C842.059 63.2518 846.525 58.8475 852.275 55.789C858.147 52.7305 865.121 51.2012 873.195 51.2012C881.27 51.2012 888.182 52.7305 893.932 55.789C899.805 58.8475 904.27 63.2518 907.329 69.0019C910.509 74.7519 912.1 81.603 912.1 89.5552V150.298C912.1 158.25 910.509 165.162 907.329 171.034C904.27 176.785 899.805 181.189 893.932 184.247C888.182 187.306 881.27 188.835 873.195 188.835ZM873.195 173.971C880.413 173.971 885.919 171.952 889.711 167.915C893.626 163.755 895.584 157.883 895.584 150.298V89.7387C895.584 82.1535 893.626 76.3423 889.711 72.3051C885.919 68.1455 880.413 66.0657 873.195 66.0657C866.1 66.0657 860.594 68.1455 856.679 72.3051C852.764 76.3423 850.807 82.1535 850.807 89.7387V150.298C850.807 157.883 852.764 163.755 856.679 167.915C860.594 171.952 866.1 173.971 873.195 173.971ZM935.518 187L974.055 119.101L937.536 53.0363H956.622L977.358 92.6749C978.459 94.7547 979.561 97.018 980.662 99.4648C981.885 101.789 982.864 103.624 983.598 104.97C984.209 103.624 985.066 101.789 986.167 99.4648C987.39 97.018 988.553 94.7547 989.654 92.6749L1010.76 53.0363H1028.93L992.406 118L1030.94 187H1012.04L989.103 144.425C988.002 142.345 986.84 140.143 985.616 137.819C984.515 135.372 983.659 133.415 983.047 131.946C982.436 133.415 981.518 135.311 980.295 137.635C979.193 139.96 978.092 142.162 976.991 144.242L953.869 187H935.518Z" fill="black"/>
<path d="M90.565 32.4586L30.66 67.7752L30.8673 138.209L91.5604 171.076L151.465 135.759L151.857 66.88L90.565 32.4586Z" stroke="url(#paint0_linear_38_41)" stroke-width="14.2366"/>
<path d="M237.778 28.9365L177.873 64.2531L178.08 134.687L238.774 167.554L298.679 132.237L299.07 63.358L237.778 28.9365Z" stroke="url(#paint1_linear_38_41)" stroke-width="14.2366"/>
<path d="M164.525 74.3072L104.62 109.624L104.828 180.057L165.521 212.925L225.426 177.608L225.817 108.729L164.525 74.3072Z" stroke="url(#paint2_linear_38_41)" stroke-width="14.2366"/>
<defs>
<linearGradient id="paint0_linear_38_41" x1="60.4946" y1="50.1864" x2="121.395" y2="153.487" gradientUnits="userSpaceOnUse">
<stop stop-color="#FF0000"/>
<stop offset="1" stop-opacity="0.79"/>
</linearGradient>
<linearGradient id="paint1_linear_38_41" x1="207.708" y1="46.6643" x2="268.608" y2="149.965" gradientUnits="userSpaceOnUse">
<stop stop-color="#FF0000"/>
<stop offset="1" stop-opacity="0.79"/>
</linearGradient>
<linearGradient id="paint2_linear_38_41" x1="134.455" y1="92.0351" x2="195.355" y2="195.336" gradientUnits="userSpaceOnUse">
<stop stop-color="#FF0000"/>
<stop offset="1" stop-opacity="0.79"/>
</linearGradient>
</defs>
</svg>
