<svg width="661" height="649" viewBox="0 0 661 649" fill="none" xmlns="http://www.w3.org/2000/svg">
<path d="M16.8831 594V460.036H60.0084C68.3276 460.036 75.5457 461.688 81.6628 464.991C87.7799 468.172 92.49 472.699 95.7932 478.571C99.2188 484.443 100.932 491.417 100.932 499.491C100.932 507.444 99.2188 514.417 95.7932 520.412C92.49 526.284 87.7799 530.872 81.6628 534.175C75.5457 537.356 68.3276 538.946 60.0084 538.946H33.3992V594H16.8831ZM33.3992 524.082H60.0084C67.2265 524.082 72.9766 521.88 77.2585 517.476C81.6628 512.949 83.8649 506.954 83.8649 499.491C83.8649 491.906 81.6628 485.912 77.2585 481.507C72.9766 477.103 67.2265 474.901 60.0084 474.901H33.3992V524.082ZM165.089 595.835C157.014 595.835 150.041 594.306 144.169 591.247C138.419 588.189 133.953 583.785 130.772 578.034C127.714 572.162 126.184 565.25 126.184 557.298V496.739C126.184 488.664 127.714 481.752 130.772 476.002C133.953 470.252 138.419 465.848 144.169 462.789C150.041 459.73 157.014 458.201 165.089 458.201C173.164 458.201 180.076 459.73 185.826 462.789C191.698 465.848 196.164 470.252 199.222 476.002C202.403 481.752 203.994 488.603 203.994 496.555V557.298C203.994 565.25 202.403 572.162 199.222 578.034C196.164 583.785 191.698 588.189 185.826 591.247C180.076 594.306 173.164 595.835 165.089 595.835ZM165.089 580.971C172.307 580.971 177.812 578.952 181.605 574.915C185.52 570.755 187.477 564.883 187.477 557.298V496.739C187.477 489.154 185.52 483.342 181.605 479.305C177.812 475.145 172.307 473.066 165.089 473.066C157.993 473.066 152.488 475.145 148.573 479.305C144.658 483.342 142.701 489.154 142.701 496.739V557.298C142.701 564.883 144.658 570.755 148.573 574.915C152.488 578.952 157.993 580.971 165.089 580.971ZM236.954 594V460.036H271.638C280.324 460.036 287.787 461.688 294.026 464.991C300.388 468.294 305.282 472.943 308.707 478.938C312.255 484.933 314.029 492.029 314.029 500.225V553.627C314.029 561.824 312.255 568.981 308.707 575.098C305.282 581.093 300.388 585.742 294.026 589.045C287.787 592.348 280.324 594 271.638 594H236.954ZM253.47 579.319H271.638C279.712 579.319 286.013 577.056 290.539 572.529C295.188 568.002 297.513 561.702 297.513 553.627V500.225C297.513 492.273 295.188 486.034 290.539 481.507C286.013 476.981 279.712 474.717 271.638 474.717H253.47V579.319ZM351.21 594V460.036H367.726V578.952H428.285V594H351.21ZM495.195 595.835C487.121 595.835 480.147 594.306 474.275 591.247C468.525 588.189 464.059 583.785 460.879 578.034C457.82 572.162 456.291 565.25 456.291 557.298V496.739C456.291 488.664 457.82 481.752 460.879 476.002C464.059 470.252 468.525 465.848 474.275 462.789C480.147 459.73 487.121 458.201 495.195 458.201C503.27 458.201 510.182 459.73 515.932 462.789C521.805 465.848 526.27 470.252 529.329 476.002C532.509 481.752 534.1 488.603 534.1 496.555V557.298C534.1 565.25 532.509 572.162 529.329 578.034C526.27 583.785 521.805 588.189 515.932 591.247C510.182 594.306 503.27 595.835 495.195 595.835ZM495.195 580.971C502.413 580.971 507.919 578.952 511.711 574.915C515.626 570.755 517.584 564.883 517.584 557.298V496.739C517.584 489.154 515.626 483.342 511.711 479.305C507.919 475.145 502.413 473.066 495.195 473.066C488.1 473.066 482.594 475.145 478.679 479.305C474.764 483.342 472.807 489.154 472.807 496.739V557.298C472.807 564.883 474.764 570.755 478.679 574.915C482.594 578.952 488.1 580.971 495.195 580.971ZM557.518 594L596.055 526.101L559.536 460.036H578.622L599.358 499.675C600.459 501.755 601.561 504.018 602.662 506.465C603.885 508.789 604.864 510.624 605.598 511.97C606.209 510.624 607.066 508.789 608.167 506.465C609.39 504.018 610.553 501.755 611.654 499.675L632.758 460.036H650.925L614.406 525L652.944 594H634.042L611.103 551.425C610.002 549.345 608.84 547.143 607.616 544.819C606.515 542.372 605.659 540.415 605.047 538.946C604.436 540.415 603.518 542.311 602.295 544.635C601.193 546.96 600.092 549.162 598.991 551.242L575.869 594H557.518Z" fill="black"/>
<path d="M193.545 39.6987L82.7211 105.035L83.1046 235.336L195.387 296.141L306.211 230.805L306.935 103.378L193.545 39.6987Z" stroke="url(#paint0_linear_38_40)" stroke-width="26.3378"/>
<path d="M465.89 33.1825L355.065 98.5184L355.449 228.82L467.731 289.625L578.555 224.289L579.279 96.8623L465.89 33.1825Z" stroke="url(#paint1_linear_38_40)" stroke-width="26.3378"/>
<path d="M330.372 117.118L219.548 182.454L219.931 312.756L332.214 373.56L443.038 308.224L443.762 180.798L330.372 117.118Z" stroke="url(#paint2_linear_38_40)" stroke-width="26.3378"/>
<defs>
<linearGradient id="paint0_linear_38_40" x1="137.915" y1="72.4952" x2="250.581" y2="263.602" gradientUnits="userSpaceOnUse">
<stop stop-color="#FF0000"/>
<stop offset="1" stop-opacity="0.79"/>
</linearGradient>
<linearGradient id="paint1_linear_38_40" x1="410.259" y1="65.9791" x2="522.925" y2="257.085" gradientUnits="userSpaceOnUse">
<stop stop-color="#FF0000"/>
<stop offset="1" stop-opacity="0.79"/>
</linearGradient>
<linearGradient id="paint2_linear_38_40" x1="274.742" y1="149.915" x2="387.408" y2="341.021" gradientUnits="userSpaceOnUse">
<stop stop-color="#FF0000"/>
<stop offset="1" stop-opacity="0.79"/>
</linearGradient>
</defs>
</svg>
