<svg width="165" height="40" viewBox="0 0 165 40" xmlns="http://www.w3.org/2000/svg">
    <g fill="none" fill-rule="evenodd">
        <path d="M37.972.389c2.5-1.043 3.663 0 3.121 3.284-.54 3.285-1.646 4.265-1.454 6.772.193 2.507 2.826 4.057 3.946 5.101-2.91-.624-4.769-1.419-8.105-3.995-3.335-2.576-9.37-3.91-12.52-.206-.29.342-.565.7-.855 1.074-.087.203-.17.365-.249.483l-.064-.082-.063.082a4.263 4.263 0 0 1-.284-.527c-.278-.36-.542-.702-.82-1.03-3.15-3.705-9.185-2.37-12.52.206C4.769 14.127 2.91 14.921 0 15.546c1.12-1.044 3.753-2.594 3.945-5.1.193-2.508-.912-3.488-1.453-6.773C1.95.39 3.113-.654 5.612.39c2.24.935 4.36 3.164 6.75 4.375 2.519-1.681 6.489-3.314 9.304-3.314h.015l.048-.002c3.675 0 6.74 1.516 9.211 3.13l.283.186c2.39-1.211 4.51-3.44 6.75-4.375zM21.639 24.748c1.953-.018 3.271.759 3.274 1.93.004 1.307-1.559 2.596-3.172 2.616-1.71.022-3.28-1.264-3.243-2.654.03-1.156 1.221-1.874 3.141-1.892" fill="#00495D"/>
        <path d="M18.863 15.738c1.059 1.748.926 4.373-.463 6.172-.685.886-1.539 1.653-2.417 2.367-3.835 3.118 1.163 6.495 5.662 6.495v.368c-2.97 0-8.239-.84-13.656-3.893-3.612-2.035-6.209-4.684-7.792-7.95 3.596-.488 6.038-1.172 7.326-2.054 1.932-1.322 3.533-3.087 5.883-3.547 2.35-.459 4.448.376 5.457 2.042zm-3.845.176c-1.149-.048-2.196.956-2.207 2.117-.011 1.16 1.015 2.176 2.174 2.149 1.134-.027 2.022-.952 2.03-2.114.006-1.162-.869-2.105-1.997-2.152z" fill="#00495D"/>
        <path d="M24.428 15.738c-1.059 1.748-.926 4.373.463 6.172.685.886 1.539 1.653 2.417 2.367 3.835 3.118-1.232 6.495-5.663 6.495v.368c3.246 0 8.24-.84 13.657-3.893 3.611-2.035 6.209-4.684 7.792-7.95-3.596-.488-6.039-1.172-7.326-2.054-1.932-1.322-3.533-3.087-5.883-3.547-2.35-.459-4.448.376-5.457 2.042zm3.845.176c1.149-.048 2.195.956 2.207 2.117.011 1.16-1.015 2.176-2.174 2.149-1.134-.027-2.022-.952-2.03-2.114-.006-1.162.869-2.105 1.997-2.152z" fill="#009BC5"/>
        <path fill="#006A87" d="M21.842-10.179h21.842v45.903H21.842z"/>
        <g fill="#00495D" fill-rule="nonzero">
            <path d="M55.793 31.14c-.16-1.191-.223-2.125-.223-3.638V23.51c0-.87-.032-1.353-.128-2.254 1.5 2.221 3.765 3.413 6.573 3.413 4.786 0 7.85-3.51 7.85-8.983 0-5.602-3-8.982-7.914-8.982-2.84 0-5.073 1.19-6.509 3.477.064-.548.096-.902.096-1.32V7.026h-2.552c.16 1.223.223 2.157.223 3.702v16.806c0 1.32-.064 2.35-.223 3.606h2.807zm5.999-8.564c-1.66 0-3.255-.612-4.371-1.706-1.149-1.127-1.82-3.059-1.82-5.152 0-4.153 2.49-6.922 6.159-6.922 3.573 0 5.615 2.512 5.615 6.89 0 4.282-2.105 6.89-5.583 6.89zM80.06 24.869c5.098 0 8.392-3.601 8.392-9.099 0-5.53-3.262-9.066-8.424-9.066-5.161 0-8.455 3.536-8.455 9.098 0 5.562 3.294 9.067 8.487 9.067zm.032-16.14c3.641 0 5.921 2.7 5.921 7.041 0 4.34-2.28 7.009-5.985 7.009-3.705 0-6.016-2.669-6.016-7.041 0-4.34 2.311-7.009 6.08-7.009zM104.514 24.332h2.525c-.157-1.248-.22-2.08-.22-3.682V3.618c0-1.409.063-2.337.22-3.618h-2.777c.158 1.217.22 2.145.22 3.65v4.29c0 .736 0 1.024.096 1.697l.031.48c-1.389-2.209-3.598-3.394-6.47-3.394-4.734 0-7.764 3.49-7.764 8.965 0 5.57 2.966 8.964 7.827 8.964 2.872 0 4.924-1.12 6.407-3.457-.063.544-.095 1.12-.095 1.568v1.57zM98.391 8.804c1.673 0 3.188.609 4.293 1.697 1.136 1.12 1.767 2.978 1.767 5.09 0 4.227-2.367 6.948-6.06 6.948-1.767 0-3.25-.672-4.229-1.92-.82-1.057-1.294-2.882-1.294-4.995 0-4.258 2.083-6.82 5.523-6.82zM109.817 0c.154 1.158.216 2.026.216 3.601v17.234c0 1.447-.062 2.444-.216 3.601h2.777a26.513 26.513 0 0 1-.216-3.601V3.633c0-1.607.062-2.475.216-3.633h-2.777zM123.645 24.869c5.098 0 8.392-3.601 8.392-9.099 0-5.53-3.262-9.066-8.424-9.066-5.161 0-8.455 3.536-8.455 9.098 0 5.562 3.294 9.067 8.487 9.067zm.032-16.14c3.641 0 5.921 2.7 5.921 7.041 0 4.34-2.28 7.009-5.985 7.009-3.705 0-6.016-2.669-6.016-7.041 0-4.34 2.311-7.009 6.08-7.009z"/>
            <path d="M147.633 24.436c-1.964-2.632-1.964-2.632-2.281-3.049l-4.182-5.906 3.992-5.68c.539-.771 1.204-1.638 1.933-2.665h-3.042c-.285.642-.697 1.348-1.236 2.15l-3.073 4.526-3.105-4.525c-.602-.867-.919-1.413-1.236-2.15h-3.105c1.458 1.957 1.711 2.278 1.901 2.567l4.088 5.777-4.405 6.163a52.64 52.64 0 0 1-2.059 2.792h3.137c.475-.899.728-1.38 1.235-2.086l3.517-5.2 3.359 4.911c.665 1.027.982 1.54 1.426 2.375h3.136z"/>
            <path d="M163.443 24.436c-1.964-2.632-1.964-2.632-2.28-3.049l-4.183-5.906 3.992-5.68c.539-.771 1.204-1.638 1.933-2.665h-3.042c-.285.642-.697 1.348-1.235 2.15l-3.074 4.526-3.105-4.525c-.602-.867-.919-1.413-1.235-2.15h-3.105c1.457 1.957 1.71 2.278 1.9 2.567l4.088 5.777-4.404 6.163a52.64 52.64 0 0 1-2.06 2.792h3.137c.475-.899.729-1.38 1.236-2.086l3.517-5.2 3.358 4.911c.665 1.027.982 1.54 1.426 2.375h3.136z"/>
        </g>
        <text font-family="RobotoSlab-Regular, Roboto Slab" font-size="9.363" letter-spacing="-.234" fill="#00495D">
                    <tspan x="109.929" y="36.92">by mogenius</tspan>
                </text>
    </g>
</svg>
