<svg width="765" height="144" viewBox="0 0 765 144" xmlns="http://www.w3.org/2000/svg">
    <defs>
        <clipPath id="54db780cca">
            <path d="M3510 0v1149H0V0h3510z"/>
        </clipPath>
        <clipPath id="0d8c0bl5db">
            <path d="M192.338 16.986c-2.533 15.188-7.705 19.721-6.805 31.316.9 11.594 13.226 18.758 18.467 23.587-13.621-2.887-22.32-6.56-37.933-18.474-15.613-11.914-43.856-18.083-58.6-.953-1.362 1.583-2.646 3.231-4.001 4.963-.408.935-.801 1.69-1.168 2.238l-.298-.376-.298.376c-.395-.59-.848-1.422-1.337-2.455-1.293-1.652-2.527-3.23-3.832-4.746-14.744-17.13-42.987-10.961-58.6.953C22.32 65.33 13.621 69.002 0 71.89c5.241-4.829 17.566-11.993 18.467-23.587.9-11.595-4.272-16.128-6.805-31.316C9.128 1.798 14.572-3.026 26.27 1.798c10.483 4.324 20.404 14.63 31.592 20.23 11.776-7.766 30.337-15.31 43.51-15.324l.33-.007c17.865 0 32.65 7.558 44.436 15.331 11.188-5.6 21.109-15.906 31.592-20.23 11.698-4.824 17.142 0 14.608 15.188z"/>
        </clipPath>
        <clipPath id="mksslil6cc">
            <path d="M30.032 8.927c.017 6.043-7.299 12.002-14.85 12.097C7.184 21.124-.17 15.178.003 8.752.148 3.403 5.722.086 14.706.002c9.14-.086 15.31 3.508 15.326 8.925z"/>
        </clipPath>
        <clipPath id="vp7zlxjiad">
            <path d="M87.37 10.02c4.954 8.08 4.332 20.22-2.171 28.54-3.203 4.097-7.2 7.643-11.311 10.945-17.95 14.418 5.442 30.034 26.503 30.034v1.703c-13.9 0-38.565-3.887-63.92-18C19.568 53.831 7.411 41.577 0 26.48c16.833-2.258 28.264-5.424 34.292-9.5 1.842-1.245 3.62-2.576 5.376-3.923l.956-.736.238-.184 1.19-.92.953-.734c5.713-4.388 11.487-8.488 18.82-9.905 11.001-2.125 20.82 1.738 25.544 9.443zM59.04 20.623c-.053 5.368 4.752 10.06 10.175 9.936 5.31-.122 9.467-4.399 9.498-9.773.032-5.375-4.062-9.734-9.342-9.951-5.378-.22-10.277 4.421-10.33 9.788z"/>
        </clipPath>
        <clipPath id="edhognhbee">
            <path d="M87.37 10.02c4.954 8.08 4.332 20.22-2.171 28.54-3.203 4.097-7.2 7.643-11.311 10.945-17.95 14.418 5.765 30.034 26.503 30.034v1.703c-15.192 0-38.565-3.887-63.92-18C19.568 53.831 7.411 41.577 0 26.48c16.833-2.258 28.264-5.424 34.292-9.5 1.842-1.245 3.62-2.576 5.376-3.923l.956-.736.238-.184 1.19-.92.953-.734c5.713-4.388 11.487-8.488 18.82-9.905 11.001-2.125 20.82 1.738 25.544 9.443zM59.04 20.623c-.053 5.368 4.752 10.06 10.175 9.936 5.31-.122 9.467-4.399 9.498-9.773.032-5.375-4.062-9.734-9.342-9.951-5.378-.22-10.277 4.421-10.33 9.788z"/>
        </clipPath>
        <clipPath id="y51u13kbuf">
            <path d="M139.877 63.336c7.334 1.417 13.108 5.517 18.821 9.905l.952.734.953.736.477.368.955.736c1.756 1.348 3.534 2.678 5.376 3.923 6.028 4.076 17.459 7.242 34.292 9.5-7.41 15.098-19.568 27.352-36.471 36.762-25.355 14.114-48.728 18-63.92 18-13.9 0-38.565-3.886-63.92-18C20.49 116.59 8.332 104.336.921 89.238c16.834-2.258 28.264-5.424 34.292-9.5 1.842-1.245 3.62-2.575 5.376-3.923l1.194-.92 1.19-.92.953-.734c5.713-4.388 11.487-8.488 18.82-9.905 11.001-2.124 20.82 1.738 25.544 9.443 4.955 8.08 4.333 20.22-2.17 28.54-3.203 4.096-7.2 7.642-11.311 10.944-17.95 14.418 5.442 30.034 26.503 30.034l.623-.004c20.585-.308 43.651-15.756 25.88-30.03-4.11-3.302-8.108-6.848-11.31-10.945C110 93 109.378 80.858 114.333 72.78c4.725-7.705 14.543-11.567 25.543-9.443zm-23.27 60.033c.018 6.042-7.298 12.002-14.85 12.096-7.997.1-15.353-5.846-15.178-12.271.145-5.35 5.718-8.667 14.703-8.75 9.14-.086 15.31 3.507 15.326 8.925zM59.963 83.38c-.053 5.369 4.752 10.061 10.175 9.936 5.31-.121 9.467-4.398 9.498-9.772.032-5.375-4.062-9.735-9.342-9.952-5.378-.22-10.277 4.421-10.33 9.788zm72.638-9.795-.269.007c-5.28.217-9.374 4.577-9.342 9.952.032 5.374 4.188 9.65 9.499 9.772 5.422.125 10.227-4.567 10.174-9.936-.052-5.188-4.631-9.698-9.795-9.794h-.267zm59.738-56.6c-2.533 15.189-7.705 19.722-6.805 31.317.9 11.594 13.226 18.758 18.467 23.587-13.621-2.887-22.32-6.56-37.933-18.474-15.613-11.914-43.856-18.083-58.6-.953-1.362 1.583-2.646 3.231-4.001 4.963-.408.935-.801 1.69-1.168 2.238l-.298-.376-.298.376c-.395-.59-.848-1.422-1.337-2.455-1.293-1.652-2.527-3.23-3.832-4.746-14.744-17.13-42.987-10.961-58.6.953C22.32 65.33 13.621 69.002 0 71.89c5.241-4.829 17.566-11.993 18.467-23.587.9-11.595-4.272-16.128-6.805-31.316C9.128 1.798 14.572-3.026 26.27 1.798c10.483 4.324 20.404 14.63 31.592 20.23 11.776-7.766 30.337-15.31 43.51-15.324l.33-.007c17.865 0 32.65 7.558 44.436 15.331 11.188-5.6 21.109-15.906 31.592-20.23 11.698-4.824 17.142 0 14.608 15.188z"/>
        </clipPath>
        <clipPath id="5q2yl01m8g">
            <path d="M102.233 0v212.27H0V0h102.233z"/>
        </clipPath>
        <clipPath id="u283xjfkeh">
            <path d="M41.964 0C64.962 0 79 15.632 79 41.538c0 25.31-14.336 41.537-36.737 41.537-13.142 0-23.745-5.508-30.764-15.781.448 4.168.597 6.402.597 10.421v18.462c0 6.997.3 11.314 1.046 16.823H0c.747-5.806 1.045-10.57 1.045-16.675V18.61C1.045 11.464.747 7.146 0 1.489h11.947v8.486c0 1.935-.15 3.573-.448 6.104C18.22 5.51 28.673 0 41.964 0zm-.896 9.677c-17.174 0-28.822 12.804-28.822 32.01 0 9.677 3.136 18.61 8.512 23.82 5.227 5.062 12.694 7.89 20.46 7.89 16.277 0 26.134-12.058 26.134-31.86 0-20.247-9.558-31.86-26.284-31.86z"/>
        </clipPath>
        <clipPath id="03ehkl148i">
            <path d="M39.574 0C63.734 0 79 16.354 79 41.926 79 67.349 63.585 84 39.722 84 15.415 84 0 67.795 0 42.074 0 16.354 15.415 0 39.574 0zm.297 9.366c-17.638 0-28.458 12.34-28.458 32.411 0 20.22 10.82 32.56 28.161 32.56 17.342 0 28.013-12.34 28.013-32.411S56.916 9.366 39.871 9.366z"/>
        </clipPath>
        <clipPath id="xyo71k7ecj">
            <path d="M78 0c-.739 5.922-1.034 10.216-1.034 16.73v78.764c0 7.402.295 11.251 1.034 17.025H66.182v-7.254c0-2.073.148-4.738.443-7.255C59.682 108.818 50.08 114 36.636 114 13.886 114 0 98.306 0 72.545 0 47.23 14.182 31.091 36.34 31.091c13.444 0 23.785 5.478 30.285 15.693l-.148-2.22c-.399-2.799-.438-4.158-.442-6.884V16.878C66.034 9.919 65.738 5.626 65 0zM37.523 40.714c-16.103 0-25.853 11.844-25.853 31.535 0 9.772 2.216 18.21 6.057 23.096 4.58 5.774 11.523 8.884 19.796 8.884 17.284 0 28.363-12.585 28.363-32.128 0-9.771-2.954-18.358-8.272-23.54-5.17-5.034-12.262-7.847-20.091-7.847z"/>
        </clipPath>
        <clipPath id="n4ycf3msxk">
            <path d="M13 0c-.722 5.353-1.011 9.367-1.011 16.801v79.546c0 6.691.289 10.706 1.011 16.653H0c.722-5.353 1.011-9.962 1.011-16.653V16.653C1.011 9.367.722 5.353 0 0z"/>
        </clipPath>
        <clipPath id="67bcpyg2jl">
            <path d="M39.574 0C63.734 0 79 16.354 79 41.926 79 67.349 63.585 84 39.722 84 15.415 84 0 67.795 0 42.074 0 16.354 15.415 0 39.574 0zm.297 9.366c-17.638 0-28.458 12.34-28.458 32.411 0 20.22 10.82 32.56 28.161 32.56 17.342 0 28.013-12.34 28.013-32.411S56.916 9.366 39.871 9.366z"/>
        </clipPath>
        <clipPath id="ehcv9ozngm">
            <path d="M16.758 0c1.482 3.414 2.965 5.937 5.783 9.944l14.533 20.928L51.46 9.944C53.98 6.234 55.908 2.968 57.242 0H71.48c-3.41 4.75-6.525 8.757-9.046 12.32L43.747 38.59 63.323 65.9l.223.29.085.11.616.805.088.115C65.392 68.606 67.128 70.904 74 80H59.319c-2.077-3.859-3.56-6.234-6.674-10.983l-15.72-22.709-16.46 24.045c-2.373 3.265-3.56 5.491-5.784 9.647H0c2.373-2.968 6.377-8.163 9.64-12.913L30.252 38.59l-19.13-26.716c-.05-.074-.1-.149-.153-.225l-.08-.116C9.997 10.238 8.479 8.299 2.225 0z"/>
        </clipPath>
        <clipPath id="gf7kmya6sn">
            <path d="M16.758 0c1.482 3.414 2.965 5.937 5.783 9.944l14.533 20.928L51.46 9.944C53.98 6.234 55.908 2.968 57.242 0H71.48c-3.41 4.75-6.525 8.757-9.046 12.32L43.747 38.59 63.323 65.9l.223.29.085.11.616.805.088.115C65.392 68.606 67.128 70.904 74 80H59.319c-2.077-3.859-3.56-6.234-6.674-10.983l-15.72-22.709-16.46 24.045c-2.373 3.265-3.56 5.491-5.784 9.647H0c2.373-2.968 6.377-8.163 9.64-12.913L30.252 38.59l-19.13-26.716c-.05-.074-.1-.149-.153-.225l-.08-.116C9.997 10.238 8.479 8.299 2.225 0z"/>
        </clipPath>
    </defs>
    <g clip-path="url(#54db780cca)" transform="translate(-269 -732)">
        <g clip-path="url(#0d8c0bl5db)" transform="translate(269 732)">
            <path fill="#00495C" d="M0 0h204v71.89H0V0z"/>
        </g>
        <g clip-path="url(#mksslil6cc)" transform="translate(355.576 846.442)">
            <path fill="#00495C" d="M0 0h30.032v21.025H0V0z"/>
        </g>
        <g clip-path="url(#vp7zlxjiad)" transform="translate(269.921 794.758)">
            <path fill="#00495C" d="M0 0h100.391v81.242H0V0z"/>
        </g>
        <g clip-path="url(#edhognhbee)" transform="matrix(-1 0 0 1 470.703 794.758)">
            <path fill="#009BC5" d="M0 0h100.391v81.242H0V0z"/>
        </g>
        <g clip-path="url(#y51u13kbuf)" transform="translate(269 732)">
            <g clip-path="url(#5q2yl01m8g)" transform="translate(102.233 -47.069)">
                <path fill="#006A87" d="M0 47.069h101.767v144H0v-144z"/>
            </g>
        </g>
        <g>
            <g clip-path="url(#u283xjfkeh)" transform="translate(517 763)">
                <path fill="#00495C" d="M0 0h79v113H0V0z"/>
            </g>
            <g clip-path="url(#03ehkl148i)" transform="translate(604 763)">
                <path fill="#00495C" d="M0 0h79v84H0V0z"/>
            </g>
            <g clip-path="url(#xyo71k7ecj)" transform="translate(692 732)">
                <path fill="#00495C" d="M0 0h78v114H0V0z"/>
            </g>
            <g clip-path="url(#n4ycf3msxk)" transform="translate(783 732)">
                <path fill="#00495C" d="M0 0h13v113H0V0z"/>
            </g>
            <g clip-path="url(#67bcpyg2jl)" transform="translate(808 763)">
                <path fill="#00495C" d="M0 0h79v84H0V0z"/>
            </g>
            <g clip-path="url(#ehcv9ozngm)" transform="translate(886 765)">
                <path fill="#00495C" d="M0 0h74v80H0V0z"/>
            </g>
            <g clip-path="url(#gf7kmya6sn)" transform="translate(960 765)">
                <path fill="#00495C" d="M0 0h74v80H0V0z"/>
            </g>
        </g>
    </g>
</svg>
