<svg width="517" height="573" viewBox="0 0 517 573" xmlns="http://www.w3.org/2000/svg">
    <defs>
        <clipPath id="mm7kuu5g5a">
            <path d="M3510 0v1149H0V0h3510z"/>
        </clipPath>
        <clipPath id="nuwmfum87b">
            <path d="M487.446 42.937c-6.42 38.39-19.529 49.85-17.247 79.159 2.283 29.308 33.518 47.418 46.801 59.624-34.52-7.298-56.567-16.581-96.135-46.698-39.568-30.117-111.145-45.71-148.509-2.409-3.453 4.003-6.711 8.172-10.147 12.552-1.03 2.359-2.025 4.268-2.955 5.65l-.754-.947-.754.946c-1.002-1.488-2.149-3.59-3.386-6.198-3.278-4.18-6.408-8.168-9.716-12.003-37.364-43.302-108.94-27.708-148.509 2.409C56.567 165.139 34.52 174.422 0 181.72c13.283-12.206 44.518-30.316 46.8-59.624 2.283-29.308-10.826-40.768-17.246-79.16-6.42-38.39 7.376-50.586 37.021-38.39 26.57 10.93 51.711 36.983 80.066 51.137 29.863-19.645 76.941-38.727 110.332-38.736l.773-.02c45.274 0 82.743 19.106 112.613 38.756 28.355-14.154 53.496-40.207 80.066-51.138 29.645-12.195 43.441 0 37.021 38.392z"/>
        </clipPath>
        <clipPath id="zetm8fgbqc">
            <path d="M76.11 22.566c.044 15.274-18.497 30.338-37.634 30.577-20.27.254-38.91-14.778-38.468-31.02C.376 8.602 14.5.217 37.27.003c23.162-.215 38.8 8.87 38.84 22.563z"/>
        </clipPath>
        <clipPath id="crw68vfrdd">
            <path d="M221.421 25.33c12.558 20.424 10.98 51.112-5.5 72.141-8.117 10.356-18.249 19.319-28.666 27.666-45.492 36.446 13.793 75.92 67.167 75.92v4.304c-35.226 0-97.736-9.824-161.993-45.501C49.591 136.075 18.781 105.1 0 66.934c42.661-5.706 71.63-13.71 86.907-24.012 4.725-3.187 9.283-6.593 13.786-10.04l1.35-1.036 1.346-1.037 1.345-1.037 1.343-1.036c15.447-11.91 30.778-23.454 50.61-27.275 27.878-5.37 52.76 4.393 64.734 23.87zm-71.792 26.798c-.134 13.57 12.042 25.432 25.785 25.116 13.458-.308 23.992-11.119 24.072-24.704.08-13.586-10.293-24.606-23.676-25.154-13.63-.559-26.045 11.175-26.181 24.742z"/>
        </clipPath>
        <clipPath id="oh4pdvmhee">
            <path d="M221.421 25.33c12.558 20.424 10.98 51.112-5.5 72.141-8.117 10.356-18.249 19.319-28.666 27.666-45.492 36.446 14.61 75.92 67.167 75.92v4.304c-38.501 0-97.736-9.824-161.993-45.501C49.591 136.075 18.781 105.1 0 66.934c42.661-5.706 71.63-13.71 86.907-24.012 4.725-3.187 9.283-6.593 13.786-10.04l1.35-1.036 1.346-1.037 1.345-1.037 1.343-1.036c15.447-11.91 30.778-23.454 50.61-27.275 27.878-5.37 52.76 4.393 64.734 23.87zm-71.792 26.798c-.134 13.57 12.042 25.432 25.785 25.116 13.458-.308 23.992-11.119 24.072-24.704.08-13.586-10.293-24.606-23.676-25.154-13.63-.559-26.045 11.175-26.181 24.742z"/>
        </clipPath>
        <clipPath id="3xqu6hmi9f">
            <path d="M354.493 160.1c19.83 3.821 35.162 15.366 50.608 27.275l1.344 1.036 1.345 1.037 1.347 1.037 1.35 1.035c4.502 3.448 9.06 6.854 13.785 10.04 15.276 10.303 44.246 18.307 86.907 24.014-18.782 38.165-49.591 69.14-92.43 92.925C354.494 354.176 295.26 364 256.757 364c-35.226 0-97.736-9.824-161.993-45.501-42.838-23.785-73.647-54.76-92.429-92.925 42.661-5.707 71.63-13.711 86.907-24.013 4.725-3.187 9.283-6.593 13.786-10.04l1.35-1.036 1.346-1.037 1.345-1.037 1.344-1.036c15.446-11.91 30.777-23.454 50.608-27.274 27.879-5.372 52.76 4.392 64.735 23.868 12.558 20.424 10.98 51.112-5.5 72.141-8.117 10.356-18.248 19.319-28.666 27.666-45.491 36.447 13.793 75.92 67.167 75.92l1.58-.012c52.17-.777 110.625-39.826 65.588-75.908-10.418-8.347-20.55-17.31-28.666-27.666-16.48-21.029-18.058-51.717-5.5-72.14 11.975-19.477 36.856-29.24 64.735-23.87zM295.52 311.85c.044 15.273-18.497 30.337-37.634 30.576-20.27.254-38.91-14.777-38.468-31.02.368-13.52 14.492-21.906 37.262-22.12 23.162-.215 38.8 8.87 38.84 22.564zM151.963 210.767c-.134 13.57 12.042 25.432 25.785 25.116 13.458-.308 23.992-11.119 24.073-24.703.08-13.587-10.294-24.607-23.677-25.155-13.63-.558-26.045 11.175-26.18 24.742zm183.406-24.742c-13.383.548-23.757 11.568-23.677 25.155.08 13.584 10.615 24.395 24.073 24.703 13.743.316 25.92-11.546 25.785-25.116-.136-13.567-12.551-25.3-26.181-24.742zM487.446 42.937c-6.42 38.39-19.529 49.85-17.247 79.159 2.283 29.308 33.518 47.418 46.801 59.624-34.52-7.298-56.567-16.581-96.135-46.698-39.568-30.117-111.145-45.71-148.509-2.409-3.453 4.003-6.711 8.172-10.147 12.552-1.03 2.359-2.025 4.268-2.955 5.65l-.754-.947-.754.946c-1.002-1.488-2.149-3.59-3.386-6.198-3.278-4.18-6.408-8.168-9.716-12.003-37.364-43.302-108.94-27.708-148.509 2.409C56.567 165.139 34.52 174.422 0 181.72c13.283-12.206 44.518-30.316 46.8-59.624 2.283-29.308-10.826-40.768-17.246-79.16-6.42-38.39 7.376-50.586 37.021-38.39 26.57 10.93 51.711 36.983 80.066 51.137 29.863-19.645 76.941-38.727 110.332-38.736l.773-.02c45.274 0 82.743 19.106 112.613 38.756 28.355-14.154 53.496-40.207 80.066-51.138 29.645-12.195 43.441 0 37.021 38.392z"/>
        </clipPath>
        <clipPath id="vlgdbe95ag">
            <path d="M259 0v537H0V0h259z"/>
        </clipPath>
        <clipPath id="5s69ghp6hh">
            <path d="M41.964 0C64.962 0 79 15.632 79 41.538c0 25.31-14.336 41.537-36.737 41.537-13.142 0-23.745-5.508-30.764-15.781.448 4.168.597 6.402.597 10.421v18.462c0 6.997.3 11.314 1.046 16.823H0c.747-5.806 1.045-10.57 1.045-16.675V18.61C1.045 11.464.747 7.146 0 1.489h11.947v8.486c0 1.935-.15 3.573-.448 6.104C18.22 5.51 28.673 0 41.964 0zm-.896 9.677c-17.174 0-28.822 12.804-28.822 32.01 0 9.677 3.136 18.61 8.512 23.82 5.227 5.062 12.694 7.89 20.46 7.89 16.277 0 26.134-12.058 26.134-31.86 0-20.247-9.558-31.86-26.284-31.86z"/>
        </clipPath>
        <clipPath id="gzp2o7vc6i">
            <path d="M39.574 0C63.734 0 79 16.354 79 41.926 79 67.349 63.585 84 39.722 84 15.415 84 0 67.795 0 42.074 0 16.354 15.415 0 39.574 0zm.297 9.366c-17.638 0-28.458 12.34-28.458 32.411 0 20.22 10.82 32.56 28.161 32.56 17.342 0 28.013-12.34 28.013-32.411S56.916 9.366 39.871 9.366z"/>
        </clipPath>
        <clipPath id="9relh4742j">
            <path d="M78 0c-.739 5.922-1.034 10.216-1.034 16.73v78.764c0 7.402.295 11.251 1.034 17.025H66.182v-7.254c0-2.073.148-4.738.443-7.255C59.682 108.818 50.08 114 36.636 114 13.886 114 0 98.306 0 72.545 0 47.23 14.182 31.091 36.34 31.091c13.444 0 23.785 5.478 30.285 15.693l-.148-2.22c-.399-2.799-.438-4.158-.442-6.884V16.878C66.034 9.919 65.738 5.626 65 0zM37.523 40.714c-16.103 0-25.853 11.844-25.853 31.535 0 9.772 2.216 18.21 6.057 23.096 4.58 5.774 11.523 8.884 19.796 8.884 17.284 0 28.363-12.585 28.363-32.128 0-9.771-2.954-18.358-8.272-23.54-5.17-5.034-12.262-7.847-20.091-7.847z"/>
        </clipPath>
        <clipPath id="au8f3qq0uk">
            <path d="M13 0c-.722 5.353-1.011 9.367-1.011 16.801v79.546c0 6.691.289 10.706 1.011 16.653H0c.722-5.353 1.011-9.962 1.011-16.653V16.653C1.011 9.367.722 5.353 0 0z"/>
        </clipPath>
        <clipPath id="k8sfljusul">
            <path d="M39.574 0C63.734 0 79 16.354 79 41.926 79 67.349 63.585 84 39.722 84 15.415 84 0 67.795 0 42.074 0 16.354 15.415 0 39.574 0zm.297 9.366c-17.638 0-28.458 12.34-28.458 32.411 0 20.22 10.82 32.56 28.161 32.56 17.342 0 28.013-12.34 28.013-32.411S56.916 9.366 39.871 9.366z"/>
        </clipPath>
        <clipPath id="lvn6zpidgm">
            <path d="M16.758 0c1.482 3.414 2.965 5.937 5.783 9.944l14.533 20.928L51.46 9.944C53.98 6.234 55.908 2.968 57.242 0H71.48c-3.41 4.75-6.525 8.757-9.046 12.32L43.747 38.59 63.323 65.9l.223.29.085.11.616.805.088.115C65.392 68.606 67.128 70.904 74 80H59.319c-2.077-3.859-3.56-6.234-6.674-10.983l-15.72-22.709-16.46 24.045c-2.373 3.265-3.56 5.491-5.784 9.647H0c2.373-2.968 6.377-8.163 9.64-12.913L30.252 38.59l-19.13-26.716c-.05-.074-.1-.149-.153-.225l-.08-.116C9.997 10.238 8.479 8.299 2.225 0z"/>
        </clipPath>
        <clipPath id="38ehr1b85n">
            <path d="M16.758 0c1.482 3.414 2.965 5.937 5.783 9.944l14.533 20.928L51.46 9.944C53.98 6.234 55.908 2.968 57.242 0H71.48c-3.41 4.75-6.525 8.757-9.046 12.32L43.747 38.59 63.323 65.9l.223.29.085.11.616.805.088.115C65.392 68.606 67.128 70.904 74 80H59.319c-2.077-3.859-3.56-6.234-6.674-10.983l-15.72-22.709-16.46 24.045c-2.373 3.265-3.56 5.491-5.784 9.647H0c2.373-2.968 6.377-8.163 9.64-12.913L30.252 38.59l-19.13-26.716c-.05-.074-.1-.149-.153-.225l-.08-.116C9.997 10.238 8.479 8.299 2.225 0z"/>
        </clipPath>
    </defs>
    <g clip-path="url(#mm7kuu5g5a)" transform="translate(-2544 -303)">
        <g clip-path="url(#nuwmfum87b)" transform="translate(2544 303)">
            <path fill="#00495C" d="M0 0h517v181.72H0V0z"/>
        </g>
        <g clip-path="url(#zetm8fgbqc)" transform="translate(2763.41 592.283)">
            <path fill="#00495C" d="M0 0h76.11v53.146H0V0z"/>
        </g>
        <g clip-path="url(#crw68vfrdd)" transform="translate(2546.334 461.64)">
            <path fill="#00495C" d="M0 0h254.422v205.36H0V0z"/>
        </g>
        <g clip-path="url(#oh4pdvmhee)" transform="matrix(-1 0 0 1 3055.179 461.64)">
            <path fill="#009BC5" d="M0 0h254.422v205.36H0V0z"/>
        </g>
        <g clip-path="url(#3xqu6hmi9f)" transform="translate(2544 303)">
            <g clip-path="url(#vlgdbe95ag)" transform="translate(259 -119)">
                <path fill="#006A87" d="M0 119h258v364H0V119z"/>
            </g>
        </g>
        <g>
            <g clip-path="url(#5s69ghp6hh)" transform="translate(2544 763)">
                <path fill="#00495C" d="M0 0h79v113H0V0z"/>
            </g>
            <g clip-path="url(#gzp2o7vc6i)" transform="translate(2631 763)">
                <path fill="#00495C" d="M0 0h79v84H0V0z"/>
            </g>
            <g clip-path="url(#9relh4742j)" transform="translate(2719 732)">
                <path fill="#00495C" d="M0 0h78v114H0V0z"/>
            </g>
            <g clip-path="url(#au8f3qq0uk)" transform="translate(2810 732)">
                <path fill="#00495C" d="M0 0h13v113H0V0z"/>
            </g>
            <g clip-path="url(#k8sfljusul)" transform="translate(2835 763)">
                <path fill="#00495C" d="M0 0h79v84H0V0z"/>
            </g>
            <g clip-path="url(#lvn6zpidgm)" transform="translate(2913 765)">
                <path fill="#00495C" d="M0 0h74v80H0V0z"/>
            </g>
            <g clip-path="url(#38ehr1b85n)" transform="translate(2987 765)">
                <path fill="#00495C" d="M0 0h74v80H0V0z"/>
            </g>
        </g>
    </g>
</svg>
