<svg width="874" height="162" viewBox="0 0 874 162" xmlns="http://www.w3.org/2000/svg">
    <defs>
        <clipPath id="jazrl9f3ha">
            <path d="M4539 0v2014H0V0h4539z"/>
        </clipPath>
        <clipPath id="szz5rz6vib">
            <path d="M47.321 34.875c25.934 0 41.764 17.586 41.764 46.73 0 28.473-16.167 46.73-41.427 46.73-14.82 0-26.776-6.198-34.691-17.754.505 4.69.674 7.202.674 11.724v20.769c0 7.872.336 12.729 1.178 18.926H0c.842-6.532 1.179-11.892 1.179-18.759v-87.43c0-8.04-.337-12.896-1.179-19.261h13.472v9.547c0 2.177-.168 4.02-.505 6.867 7.578-11.892 19.366-18.089 34.354-18.089zm95.412 0c27.243 0 44.458 18.398 44.458 47.166 0 28.601-17.382 47.334-44.291 47.334-27.411 0-44.794-18.231-44.794-47.166 0-28.936 17.383-47.334 44.627-47.334zm230.042 0c27.244 0 44.459 18.398 44.459 47.166 0 28.601-17.382 47.334-44.292 47.334-27.41 0-44.793-18.231-44.793-47.166 0-28.936 17.382-47.334 44.626-47.334zM285.298 0c-.833 6.662-1.166 11.493-1.166 18.821v88.61c0 8.327.333 12.658 1.166 19.153H271.97v-8.16c0-2.333.167-5.33.5-8.162-7.83 12.158-18.658 17.988-33.817 17.988-25.654 0-41.314-17.655-41.314-46.636 0-28.482 15.993-46.637 40.98-46.637 15.16 0 26.821 6.163 34.15 17.655l-.166-2.498c-.454-3.18-.495-4.708-.5-7.837v-23.31c0-7.828-.333-12.658-1.166-18.987zm29.319 0c-.814 6.022-1.14 10.538-1.14 18.901v89.49c0 7.527.326 12.043 1.14 18.734h-14.66c.815-6.022 1.14-11.207 1.14-18.734V18.734c0-8.196-.325-12.712-1.14-18.734zm120.386 37.125c1.672 3.84 3.345 6.679 6.522 11.187l16.388 23.544 16.222-23.544c2.842-4.174 5.016-7.847 6.521-11.187h16.054c-3.846 5.343-7.358 9.852-10.2 13.859l-21.071 29.555 22.074 30.723.55.715.087.113.173.226.089.115.173.227.09.118c1.196 1.562 3.176 4.178 10.878 14.349h-16.555c-2.342-4.341-4.014-7.013-7.526-12.356L457.746 89.22l-18.562 27.05c-2.676 3.674-4.014 6.179-6.522 10.854h-16.556c2.676-3.34 7.191-9.184 10.87-14.527l23.245-32.06-21.573-30.055-.075-.113-.078-.115a29.079 29.079 0 0 0-.25-.36l-.09-.128c-1.054-1.48-3.002-3.984-9.54-12.642h16.388zm83.447 0c1.672 3.84 3.345 6.679 6.522 11.187l16.388 23.544 16.221-23.544c2.843-4.174 5.017-7.847 6.522-11.187h16.054c-3.846 5.343-7.358 9.852-10.2 13.859l-21.072 29.555 22.075 30.723.55.715.087.113a375 375 0 0 1 .173.226l.089.115c1.188 1.55 2.846 3.74 11.141 14.694h-16.556c-2.34-4.341-4.013-7.013-7.525-12.356L541.193 89.22l-18.562 27.05c-2.676 3.674-4.014 6.179-6.522 10.854h-16.556c2.676-3.34 7.191-9.184 10.87-14.527l23.245-32.06-21.573-30.055-.076-.113-.077-.115a51.048 51.048 0 0 0-1.281-1.77l-.153-.203c-1.313-1.752-3.639-4.791-8.446-11.157zm-375.383 8.287c-19.89 0-32.09 13.882-32.09 36.462 0 22.747 12.2 36.63 31.756 36.63 19.555 0 31.589-13.883 31.589-36.463 0-22.58-12.034-36.629-31.255-36.629zm230.042 0c-19.89 0-32.09 13.882-32.09 36.462 0 22.747 12.2 36.63 31.756 36.63 19.555 0 31.59-13.883 31.59-36.463 0-22.58-12.035-36.629-31.256-36.629zm-326.798.35c-19.367 0-32.502 14.404-32.502 36.01 0 10.887 3.536 20.936 9.599 26.799 5.894 5.694 14.314 8.877 23.071 8.877 18.356 0 29.47-13.567 29.47-35.843 0-22.779-10.777-35.843-29.638-35.843zm193.342.042c-18.158 0-29.152 13.324-29.152 35.477 0 10.992 2.499 20.486 6.83 25.983 5.164 6.495 12.993 9.993 22.322 9.993 19.49 0 31.985-14.157 31.985-36.143 0-10.993-3.332-20.653-9.329-26.483-5.83-5.663-13.827-8.827-22.656-8.827z"/>
        </clipPath>
        <clipPath id="w4qkrirx7c">
            <path d="M37.411 1.62c11.607 4.79 21.35 16.323 33.737 22.525 13.05-8.61 29.457-14.229 44.044-14.229l.078.002.249-.01c19.521 0 31.353 5.88 44.204 14.313l.508.334c12.32-9.354 23.566-16.387 35.172-21.177 12.951-5.344 23.266 1.104 20.462 17.928-2.805 16.823-8.532 21.845-7.535 34.688.997 12.843 14.643 20.78 20.445 26.129 2.598 2.337 6.782 7.873-2.51 19.496-.178.25-.367.512-.565.786-8.25 16.238-21.532 29.455-39.846 39.656C157.784 157.695 131.906 162 115.086 162c-15.388 0-42.696-4.305-70.767-19.94-18.714-10.422-32.174-23.996-40.378-40.72l.072-.011C-.482 91.89-.617 88.028.79 85.186l.128-.248c.527-.982 1.236-1.854 2.003-2.815 5.803-5.35 19.448-13.286 20.445-26.129.997-12.843-4.73-17.865-7.534-34.688C13.027 4.482 24.46-3.724 37.412 1.62z"/>
        </clipPath>
        <clipPath id="qfgqwb87qd">
            <path d="M141.067 63.844c7.602 1.468 13.542 5.793 19.462 10.353l1.44 1.113c2.243 1.733 4.502 3.47 6.866 5.067 6.08 4.109 17.608 7.3 34.584 9.576-7.474 15.22-19.734 27.571-36.781 37.056-25.57 14.228-49.142 18.145-64.464 18.145-14.018 0-38.893-3.917-64.464-18.145C20.663 117.524 8.403 105.172.93 89.953c16.977-2.275 28.505-5.467 34.584-9.576 2.364-1.597 4.623-3.334 6.866-5.067l1.44-1.113c5.92-4.56 11.86-8.885 19.462-10.353 11.094-2.142 20.995 1.752 25.76 9.518 4.998 8.145 4.37 20.382-2.188 28.768-3.23 4.13-7.262 7.704-11.408 11.033-18.103 14.534 5.49 30.275 26.73 30.275l.627-.005c20.761-.31 44.023-15.882 26.101-30.27-4.146-3.329-8.178-6.903-11.407-11.033-6.559-8.386-7.187-20.623-2.19-28.768 4.766-7.766 14.667-11.66 25.761-9.518zM117.6 124.358c.017 6.09-7.36 12.098-14.976 12.193-8.066.101-15.484-5.893-15.309-12.37.147-5.392 5.768-8.736 14.829-8.82 9.217-.087 15.44 3.536 15.456 8.997zm-57.128-40.31c-.053 5.412 4.792 10.142 10.261 10.016 5.356-.123 9.548-4.434 9.58-9.85.032-5.419-4.096-9.813-9.422-10.032-5.424-.223-10.364 4.457-10.419 9.867zm73.252-9.873-.267.007c-5.325.219-9.454 4.613-9.422 10.031.032 5.417 4.224 9.728 9.58 9.851 5.469.126 10.314-4.604 10.26-10.015-.052-5.233-4.675-9.782-9.886-9.873l-.265-.001zm60.251-57.053c-2.555 15.31-7.771 19.88-6.863 31.567.908 11.687 13.338 18.909 18.624 23.777-13.737-2.911-22.51-6.613-38.256-18.623-15.746-12.01-44.23-18.228-59.098-.96-1.374 1.595-2.67 3.258-4.037 5.004-.411.942-.807 1.703-1.177 2.254l-.301-.379-.3.379c-.398-.594-.854-1.432-1.346-2.471-1.305-1.668-2.55-3.258-3.867-4.787-14.869-17.268-43.352-11.05-59.098.96C22.51 65.853 13.737 69.555 0 72.466c5.286-4.868 17.716-12.09 18.624-23.777C19.532 37 14.316 32.43 11.76 17.122 9.206 1.812 14.696-3.051 26.493 1.812c10.573 4.36 20.578 14.749 31.862 20.393C70.24 14.369 88.982 6.758 102.27 6.758l.297-.008c17.751 0 32.487 7.397 44.287 15.11l.526.345C158.665 16.56 168.67 6.17 179.243 1.813c11.797-4.864 17.287 0 14.732 15.309z"/>
        </clipPath>
        <clipPath id="3wx48n4zpe">
            <path d="M102.669 0v145.154H0V0h102.669z"/>
        </clipPath>
    </defs>
    <g clip-path="url(#jazrl9f3ha)" transform="translate(-173 -1641)">
        <g clip-path="url(#szz5rz6vib)" transform="translate(464 1641)">
            <path fill="#FFF" d="M0 0h583v162H0V0z"/>
        </g>
        <g clip-path="url(#w4qkrirx7c)" transform="translate(173 1641)">
            <path fill="#FFF" d="M0 0h232v162H0V0z"/>
        </g>
        <g clip-path="url(#qfgqwb87qd)" transform="translate(185.734 1651.864)">
            <path fill="#00495C" d="M0 0h205.736v145.154H0V0z"/>
            <g clip-path="url(#3wx48n4zpe)" transform="translate(103.067)">
                <path fill="#006A87" d="M0 0h102.669v145.154H0V0z"/>
            </g>
        </g>
    </g>
</svg>
