<svg width="517" height="350" viewBox="0 0 517 350" xmlns="http://www.w3.org/2000/svg">
    <defs>
        <clipPath id="s05gmgizha">
            <path d="M3510 0v1149H0V0h3510z"/>
        </clipPath>
        <clipPath id="aglv7wzwtb">
            <path d="M208.832 18.405c-2.75 16.456-8.366 21.368-7.388 33.93.977 12.564 14.36 20.326 20.05 25.559-14.79-3.129-24.235-7.108-41.187-20.017-16.951-12.91-47.616-19.594-63.624-1.033-1.48 1.716-2.875 3.503-4.347 5.38-.442 1.012-.868 1.83-1.266 2.422l-.323-.408-.323.408c-.43-.638-.92-1.538-1.45-2.655-1.405-1.793-2.745-3.503-4.163-5.147-16.008-18.561-46.673-11.877-63.625 1.033C24.235 70.786 14.79 74.765 0 77.894c5.69-5.233 19.073-12.995 20.05-25.558.978-12.563-4.638-17.475-7.388-33.931C9.91 1.948 15.822-3.28 28.522 1.948c11.383 4.686 22.154 15.853 34.302 21.92 12.787-8.416 32.941-16.59 47.245-16.604l.355-.008c19.396 0 35.449 8.19 48.246 16.612 12.148-6.067 22.919-17.234 34.302-21.92 12.7-5.227 18.611 0 15.86 16.457z"/>
        </clipPath>
        <clipPath id="vfjsvt1l7c">
            <path d="M32.607 9.673c.02 6.547-7.924 13.004-16.123 13.107C7.8 22.888-.186 16.445.004 9.483.16 3.687 6.211.093 15.966.002c9.923-.093 16.623 3.801 16.64 9.671z"/>
        </clipPath>
        <clipPath id="lx03iocksd">
            <path d="M94.862 10.858c5.38 8.754 4.703 21.908-2.357 30.923-3.477 4.439-7.818 8.28-12.281 11.858-19.49 15.623 5.91 32.543 28.776 32.543v1.845c-15.092 0-41.872-4.21-69.401-19.504C21.246 58.328 8.046 45.051 0 28.691c18.277-2.446 30.688-5.877 37.233-10.293 2.104-1.42 4.13-2.94 6.133-4.478l1-.77C51.356 7.76 58.17 2.354 67.128.627 79.072-1.676 89.73 2.51 94.862 10.858zM64.104 22.344c-.057 5.817 5.16 10.902 11.047 10.766 5.766-.132 10.279-4.766 10.313-10.589.035-5.823-4.41-10.547-10.143-10.782-5.84-.24-11.159 4.79-11.217 10.605z"/>
        </clipPath>
        <clipPath id="olq42mxmte">
            <path d="M94.862 10.858c5.38 8.754 4.703 21.908-2.357 30.923-3.477 4.439-7.818 8.28-12.281 11.858-19.49 15.623 6.26 32.543 28.776 32.543v1.845c-16.495 0-41.872-4.21-69.401-19.504C21.246 58.328 8.046 45.051 0 28.691c18.277-2.446 30.688-5.877 37.233-10.293 2.104-1.42 4.13-2.94 6.133-4.478l1-.77C51.356 7.76 58.17 2.354 67.128.627 79.072-1.676 89.73 2.51 94.862 10.858zM64.104 22.344c-.057 5.817 5.16 10.902 11.047 10.766 5.766-.132 10.279-4.766 10.313-10.589.035-5.823-4.41-10.547-10.143-10.782-5.84-.24-11.159 4.79-11.217 10.605z"/>
        </clipPath>
        <clipPath id="ees1dn0olf">
            <path d="M151.872 68.626c8.958 1.727 15.773 7.134 22.762 12.525l1 .77c2.003 1.536 4.03 3.058 6.133 4.477 6.545 4.416 18.956 7.847 37.233 10.293-8.046 16.36-21.246 29.637-39.599 39.832-27.529 15.293-52.906 19.504-69.401 19.504-15.092 0-41.872-4.21-69.401-19.504C22.246 126.328 9.046 113.051 1 96.691c18.277-2.446 30.688-5.877 37.233-10.293 2.104-1.42 4.13-2.94 6.133-4.478l1-.77c6.99-5.39 13.804-10.797 22.762-12.524 11.944-2.302 22.603 1.883 27.734 10.232 5.38 8.754 4.703 21.908-2.357 30.923-3.477 4.439-7.818 8.28-12.281 11.858-19.49 15.623 5.91 32.543 28.776 32.543l.676-.005c22.351-.333 47.395-17.071 28.1-32.538-4.463-3.578-8.804-7.42-12.281-11.858-7.06-9.015-7.736-22.169-2.357-30.923 5.13-8.349 15.79-12.534 27.734-10.232zm-25.265 65.047c.02 6.547-7.924 13.004-16.123 13.107-8.684.108-16.67-6.335-16.48-13.297.157-5.796 6.208-9.39 15.963-9.481 9.923-.093 16.623 3.801 16.64 9.671zM65.104 90.344c-.057 5.817 5.16 10.902 11.047 10.766 5.766-.132 10.279-4.766 10.313-10.589.035-5.823-4.41-10.547-10.143-10.782-5.84-.24-11.159 4.79-11.217 10.605zM143.68 79.74c-5.733.235-10.178 4.959-10.143 10.782.034 5.823 4.547 10.457 10.313 10.59 5.888.135 11.104-4.95 11.047-10.767-.058-5.815-5.377-10.845-11.217-10.605zm65.153-61.334c-2.75 16.456-8.366 21.368-7.388 33.93.977 12.564 14.36 20.326 20.05 25.559-14.79-3.129-24.235-7.108-41.187-20.017-16.951-12.91-47.616-19.594-63.624-1.033-1.48 1.716-2.875 3.503-4.347 5.38-.442 1.012-.868 1.83-1.266 2.422l-.323-.408-.323.408c-.43-.638-.92-1.538-1.45-2.655-1.405-1.793-2.745-3.503-4.163-5.147-16.008-18.561-46.673-11.877-63.625 1.033C24.235 70.786 14.79 74.765 0 77.894c5.69-5.233 19.073-12.995 20.05-25.558.978-12.563-4.638-17.475-7.388-33.931C9.91 1.948 15.822-3.28 28.522 1.948c11.383 4.686 22.154 15.853 34.302 21.92 12.787-8.416 32.941-16.59 47.245-16.604l.355-.008c19.396 0 35.449 8.19 48.246 16.612 12.148-6.067 22.919-17.234 34.302-21.92 12.7-5.227 18.611 0 15.86 16.457z"/>
        </clipPath>
        <clipPath id="evfylk08ug">
            <path d="M111 0v230H0V0h111z"/>
        </clipPath>
        <clipPath id="5kcfvrd7kh">
            <path d="M41.964 0C64.962 0 79 15.632 79 41.538c0 25.31-14.336 41.537-36.737 41.537-13.142 0-23.745-5.508-30.764-15.781.448 4.168.597 6.402.597 10.421v18.462c0 6.997.3 11.314 1.046 16.823H0c.747-5.806 1.045-10.57 1.045-16.675V18.61C1.045 11.464.747 7.146 0 1.489h11.947v8.486c0 1.935-.15 3.573-.448 6.104C18.22 5.51 28.673 0 41.964 0zm-.896 9.677c-17.174 0-28.822 12.804-28.822 32.01 0 9.677 3.136 18.61 8.512 23.82 5.227 5.062 12.694 7.89 20.46 7.89 16.277 0 26.134-12.058 26.134-31.86 0-20.247-9.558-31.86-26.284-31.86z"/>
        </clipPath>
        <clipPath id="nnw2eus48i">
            <path d="M39.574 0C63.734 0 79 16.354 79 41.926 79 67.349 63.585 84 39.722 84 15.415 84 0 67.795 0 42.074 0 16.354 15.415 0 39.574 0zm.297 9.366c-17.638 0-28.458 12.34-28.458 32.411 0 20.22 10.82 32.56 28.161 32.56 17.342 0 28.013-12.34 28.013-32.411S56.916 9.366 39.871 9.366z"/>
        </clipPath>
        <clipPath id="s0b24m9hhj">
            <path d="M78 0c-.739 5.922-1.034 10.216-1.034 16.73v78.764c0 7.402.295 11.251 1.034 17.025H66.182v-7.254c0-2.073.148-4.738.443-7.255C59.682 108.818 50.08 114 36.636 114 13.886 114 0 98.306 0 72.545 0 47.23 14.182 31.091 36.34 31.091c13.444 0 23.785 5.478 30.285 15.693l-.148-2.22c-.399-2.799-.438-4.158-.442-6.884V16.878C66.034 9.919 65.738 5.626 65 0zM37.523 40.714c-16.103 0-25.853 11.844-25.853 31.535 0 9.772 2.216 18.21 6.057 23.096 4.58 5.774 11.523 8.884 19.796 8.884 17.284 0 28.363-12.585 28.363-32.128 0-9.771-2.954-18.358-8.272-23.54-5.17-5.034-12.262-7.847-20.091-7.847z"/>
        </clipPath>
        <clipPath id="ep9mngb4nk">
            <path d="M13 0c-.722 5.353-1.011 9.367-1.011 16.801v79.546c0 6.691.289 10.706 1.011 16.653H0c.722-5.353 1.011-9.962 1.011-16.653V16.653C1.011 9.367.722 5.353 0 0z"/>
        </clipPath>
        <clipPath id="okz0sh6qkl">
            <path d="M39.574 0C63.734 0 79 16.354 79 41.926 79 67.349 63.585 84 39.722 84 15.415 84 0 67.795 0 42.074 0 16.354 15.415 0 39.574 0zm.297 9.366c-17.638 0-28.458 12.34-28.458 32.411 0 20.22 10.82 32.56 28.161 32.56 17.342 0 28.013-12.34 28.013-32.411S56.916 9.366 39.871 9.366z"/>
        </clipPath>
        <clipPath id="lu0a7ap95m">
            <path d="M16.758 0c1.482 3.414 2.965 5.937 5.783 9.944l14.533 20.928L51.46 9.944C53.98 6.234 55.908 2.968 57.242 0H71.48c-3.41 4.75-6.525 8.757-9.046 12.32L43.747 38.59 63.323 65.9l.223.29.085.11.616.805.088.115C65.392 68.606 67.128 70.904 74 80H59.319c-2.077-3.859-3.56-6.234-6.674-10.983l-15.72-22.709-16.46 24.045c-2.373 3.265-3.56 5.491-5.784 9.647H0c2.373-2.968 6.377-8.163 9.64-12.913L30.252 38.59l-19.13-26.716c-.05-.074-.1-.149-.153-.225l-.08-.116C9.997 10.238 8.479 8.299 2.225 0z"/>
        </clipPath>
        <clipPath id="7xl0uusaen">
            <path d="M16.758 0c1.482 3.414 2.965 5.937 5.783 9.944l14.533 20.928L51.46 9.944C53.98 6.234 55.908 2.968 57.242 0H71.48c-3.41 4.75-6.525 8.757-9.046 12.32L43.747 38.59 63.323 65.9l.223.29.085.11.616.805.088.115C65.392 68.606 67.128 70.904 74 80H59.319c-2.077-3.859-3.56-6.234-6.674-10.983l-15.72-22.709-16.46 24.045c-2.373 3.265-3.56 5.491-5.784 9.647H0c2.373-2.968 6.377-8.163 9.64-12.913L30.252 38.59l-19.13-26.716c-.05-.074-.1-.149-.153-.225l-.08-.116C9.997 10.238 8.479 8.299 2.225 0z"/>
        </clipPath>
    </defs>
    <g clip-path="url(#s05gmgizha)" transform="translate(-1496 -526)">
        <g clip-path="url(#aglv7wzwtb)" transform="translate(1644 526)">
            <path fill="#00495C" d="M0 0h221.494v77.894H0V0z"/>
        </g>
        <g clip-path="url(#vfjsvt1l7c)" transform="translate(1738 650)">
            <path fill="#00495C" d="M0 0h32.607v22.781H0V0z"/>
        </g>
        <g clip-path="url(#lx03iocksd)" transform="translate(1645 594)">
            <path fill="#00495C" d="M0 0h109v88.027H0V0z"/>
        </g>
        <g clip-path="url(#olq42mxmte)" transform="matrix(-1 0 0 1 1863 594)">
            <path fill="#009BC5" d="M0 0h109v88.027H0V0z"/>
        </g>
        <g clip-path="url(#ees1dn0olf)" transform="translate(1644 526)">
            <g clip-path="url(#evfylk08ug)" transform="translate(111 -51)">
                <path fill="#006A87" d="M0 51h110.494v156.027H0V51z"/>
            </g>
        </g>
        <g>
            <g clip-path="url(#5kcfvrd7kh)" transform="translate(1496 763)">
                <path fill="#00495C" d="M0 0h79v113H0V0z"/>
            </g>
            <g clip-path="url(#nnw2eus48i)" transform="translate(1583 763)">
                <path fill="#00495C" d="M0 0h79v84H0V0z"/>
            </g>
            <g clip-path="url(#s0b24m9hhj)" transform="translate(1671 732)">
                <path fill="#00495C" d="M0 0h78v114H0V0z"/>
            </g>
            <g clip-path="url(#ep9mngb4nk)" transform="translate(1762 732)">
                <path fill="#00495C" d="M0 0h13v113H0V0z"/>
            </g>
            <g clip-path="url(#okz0sh6qkl)" transform="translate(1787 763)">
                <path fill="#00495C" d="M0 0h79v84H0V0z"/>
            </g>
            <g clip-path="url(#lu0a7ap95m)" transform="translate(1865 765)">
                <path fill="#00495C" d="M0 0h74v80H0V0z"/>
            </g>
            <g clip-path="url(#7xl0uusaen)" transform="translate(1939 765)">
                <path fill="#00495C" d="M0 0h74v80H0V0z"/>
            </g>
        </g>
    </g>
</svg>
