<svg width="165" height="50" viewBox="0 0 165 50" xmlns="http://www.w3.org/2000/svg" xmlns:xlink="http://www.w3.org/1999/xlink">
    <defs>
        <path d="M29.885 23.875c2.35.46 3.95 2.225 5.883 3.547 1.287.881 3.73 1.566 7.326 2.054-1.583 3.265-4.18 5.915-7.792 7.95-5.417 3.052-10.41 3.892-13.657 3.892-2.97 0-8.239-.84-13.656-3.892C4.377 35.39 1.78 32.74.197 29.476c3.596-.488 6.038-1.173 7.326-2.054 1.932-1.322 3.533-3.088 5.883-3.547 2.35-.46 4.448.376 5.457 2.042 1.059 1.747.926 4.373-.463 6.172-.685.885-1.539 1.652-2.417 2.366-3.835 3.118 1.163 6.495 5.662 6.495l.193-.002c4.383-.096 9.25-3.42 5.47-6.493-.878-.714-1.732-1.48-2.417-2.366-1.389-1.8-1.522-4.425-.463-6.172 1.01-1.666 3.107-2.501 5.457-2.042zm-8.246 11.052c1.953-.019 3.271.758 3.274 1.93.004 1.307-1.559 2.595-3.172 2.616-1.71.021-3.28-1.264-3.243-2.654.03-1.157 1.221-1.874 3.141-1.892zm-8.828-6.718c-.011 1.161 1.015 2.176 2.174 2.15 1.134-.027 2.022-.952 2.03-2.114.006-1.163-.869-2.105-1.997-2.152-1.149-.048-2.196.956-2.207 2.116zm15.611-2.117h-.15c-1.127.048-2.002.99-1.995 2.153.007 1.162.895 2.087 2.03 2.113 1.158.027 2.184-.988 2.173-2.149-.01-1.06-.884-1.988-1.91-2.105l-.148-.012zm12.671-12.24c-.54 3.284-1.646 4.264-1.454 6.772.193 2.507 2.826 4.056 3.946 5.1-2.91-.624-4.769-1.418-8.105-3.994-3.335-2.577-9.37-3.911-12.52-.207-.29.343-.565.7-.855 1.075-.087.202-.17.365-.249.483l-.064-.082-.063.082a4.263 4.263 0 0 1-.284-.528c-.278-.36-.542-.701-.82-1.03-3.15-3.704-9.185-2.37-12.52.207C4.769 24.306 2.91 25.1 0 25.725c1.12-1.045 3.753-2.594 3.945-5.101.193-2.508-.912-3.488-1.453-6.772-.542-3.285.621-4.328 3.12-3.285 2.24.935 4.36 3.164 6.75 4.375 2.519-1.68 6.489-3.314 9.304-3.314h.015l.048-.001c3.675 0 6.74 1.515 9.211 3.129l.283.186c2.39-1.21 4.51-3.44 6.75-4.375 2.499-1.043 3.662 0 3.12 3.285z" id="q3rgfi0axa"/>
    </defs>
    <g fill="none" fill-rule="evenodd">
        <g transform="translate(0 .821)">
            <mask id="0abm0sze2b" fill="#fff">
                <use xlink:href="#q3rgfi0axa"/>
            </mask>
            <use fill="#00495D" xlink:href="#q3rgfi0axa"/>
            <path fill="#006A87" mask="url(#0abm0sze2b)" d="M21.842 0h21.842v45.903H21.842z"/>
        </g>
        <path d="M55.793 42.14c-.16-1.191-.223-2.125-.223-3.638V34.51c0-.87-.032-1.353-.128-2.254 1.5 2.221 3.765 3.413 6.573 3.413 4.786 0 7.85-3.51 7.85-8.983 0-5.602-3-8.982-7.914-8.982-2.84 0-5.073 1.19-6.509 3.477.064-.548.096-.902.096-1.32v-1.835h-2.552c.16 1.223.223 2.157.223 3.702v16.806c0 1.32-.064 2.35-.223 3.606h2.807zm5.999-8.564c-1.66 0-3.255-.612-4.371-1.706-1.149-1.127-1.82-3.059-1.82-5.152 0-4.153 2.49-6.922 6.159-6.922 3.573 0 5.615 2.512 5.615 6.89 0 4.282-2.105 6.89-5.583 6.89zm18.268 2.293c5.098 0 8.392-3.601 8.392-9.099 0-5.53-3.262-9.066-8.424-9.066-5.161 0-8.455 3.536-8.455 9.098 0 5.562 3.294 9.067 8.487 9.067zm.032-16.14c3.641 0 5.921 2.7 5.921 7.041 0 4.34-2.28 7.009-5.985 7.009-3.705 0-6.016-2.669-6.016-7.041 0-4.34 2.311-7.009 6.08-7.009zm24.422 15.603h2.525c-.157-1.248-.22-2.08-.22-3.682V14.618c0-1.409.063-2.337.22-3.618h-2.777c.158 1.217.22 2.145.22 3.65v4.29c0 .736 0 1.024.096 1.697l.031.48c-1.389-2.209-3.598-3.394-6.47-3.394-4.734 0-7.764 3.49-7.764 8.965 0 5.57 2.966 8.964 7.827 8.964 2.872 0 4.924-1.12 6.407-3.457-.063.544-.095 1.12-.095 1.568v1.57zm-6.123-15.528c1.673 0 3.188.609 4.293 1.697 1.136 1.12 1.767 2.978 1.767 5.09 0 4.227-2.367 6.948-6.06 6.948-1.767 0-3.25-.672-4.229-1.92-.82-1.057-1.294-2.882-1.294-4.995 0-4.258 2.083-6.82 5.523-6.82zM109.817 11c.154 1.158.216 2.026.216 3.601v17.234c0 1.447-.062 2.444-.216 3.601h2.777a26.513 26.513 0 0 1-.216-3.601V14.633c0-1.607.062-2.475.216-3.633h-2.777zm13.796 6.704c5.162 0 8.424 3.536 8.424 9.066 0 5.498-3.294 9.099-8.392 9.099-5.193 0-8.487-3.505-8.487-9.067s3.294-9.098 8.455-9.098zm11.79.432c.317.738.634 1.284 1.236 2.15l3.105 4.526 3.073-4.525c.539-.803.95-1.509 1.236-2.15h3.042c-.73 1.026-1.394 1.893-1.933 2.663l-3.992 5.681 4.182 5.906.078.103.048.064c.233.307.48.637 2.155 2.882h-3.136c-.444-.834-.76-1.348-1.426-2.375l-3.359-4.91-3.517 5.199c-.507.706-.76 1.187-1.235 2.086h-3.137a52.64 52.64 0 0 0 2.06-2.792l4.404-6.163-4.088-5.777a14.241 14.241 0 0 0-.475-.658l-.125-.168c-.273-.364-.676-.903-1.3-1.742zm-11.726 1.593c-3.769 0-6.08 2.669-6.08 7.009 0 4.372 2.311 7.04 6.016 7.04s5.985-2.668 5.985-7.008-2.28-7.04-5.921-7.04zm39.766 15.707c-1.964-2.632-1.964-2.632-2.28-3.049l-4.183-5.906 3.992-5.68c.539-.771 1.204-1.638 1.933-2.665h-3.042c-.285.642-.697 1.348-1.235 2.15l-3.074 4.526-3.105-4.525c-.602-.867-.919-1.413-1.235-2.15h-3.105c1.457 1.957 1.71 2.278 1.9 2.567l4.088 5.777-4.404 6.163a52.64 52.64 0 0 1-2.06 2.792h3.137c.475-.899.729-1.38 1.236-2.086l3.517-5.2 3.358 4.911c.665 1.027.982 1.54 1.426 2.375h3.136z" fill="#00495D" fill-rule="nonzero"/>
        <g fill="#00495D" fill-rule="nonzero">
            <path d="M114.862 45.634c0 .713-.172 1.289-.515 1.726-.343.437-.814.656-1.415.656-.323 0-.603-.062-.84-.185a1.577 1.577 0 0 1-.595-.546l-.082.635h-.777v-6.423l-.746-.128v-.58h1.646v2.77c.156-.22.348-.387.578-.503.23-.116.5-.174.807-.174.61 0 1.085.244 1.427.732.341.487.512 1.129.512 1.924v.096zm-.906-.096c0-.57-.103-1.033-.31-1.39-.208-.356-.525-.534-.951-.534-.278 0-.512.067-.702.2-.19.135-.342.315-.455.54v2.185a1.4 1.4 0 0 0 .46.544c.193.134.429.202.706.202.424 0 .738-.151.944-.453.206-.302.308-.701.308-1.198v-.096zM120.173 43.554l-.443.069-1.884 5.056a2.547 2.547 0 0 1-.54.868c-.234.247-.55.37-.946.37a2.906 2.906 0 0 1-.535-.073l.092-.708c-.018-.003.036 0 .162.01.127.008.207.013.24.013a.549.549 0 0 0 .466-.25c.12-.165.223-.357.311-.573l.215-.512-1.632-4.197-.453-.073v-.58h1.998v.58l-.557.092.854 2.44.165.632h.027l1.029-3.072-.562-.092v-.58h1.993v.58zM122.466 47.344l.745-.128v-3.534l-.745-.128v-.58h1.554l.06.644a1.62 1.62 0 0 1 .612-.544c.25-.128.54-.192.869-.192.33 0 .612.076.848.229.236.152.414.38.533.685.155-.28.36-.502.617-.667a1.62 1.62 0 0 1 .896-.247c.506 0 .905.173 1.198.519.292.346.438.866.438 1.561v2.254l.746.128v.576h-2.396v-.576l.745-.128v-2.263c0-.488-.083-.833-.251-1.035-.168-.203-.416-.304-.745-.304a.95.95 0 0 0-.757.331c-.19.22-.3.5-.331.834v2.437l.745.128v.576h-2.391v-.576l.745-.128v-2.263c0-.463-.086-.802-.258-1.017-.172-.215-.422-.322-.748-.322-.274 0-.5.056-.676.169a1.093 1.093 0 0 0-.407.475v2.958l.745.128v.576h-2.39v-.576zM131.215 45.401c0-.731.198-1.334.595-1.808.396-.474.934-.71 1.613-.71.683 0 1.223.235 1.62.708.399.472.598 1.076.598 1.81v.1c0 .738-.199 1.342-.595 1.811-.396.47-.934.704-1.614.704-.685 0-1.226-.235-1.622-.706-.397-.471-.595-1.074-.595-1.808V45.4zm.9.1c0 .525.111.958.332 1.299.221.341.55.512.985.512.427 0 .752-.17.974-.512.223-.341.334-.774.334-1.298V45.4c0-.518-.111-.95-.334-1.294-.222-.344-.55-.516-.983-.516-.432 0-.759.172-.978.516-.22.345-.33.776-.33 1.294v.1zM136.234 45.538c0-.795.174-1.437.521-1.924.348-.488.828-.732 1.44-.732.311 0 .584.061.818.183.235.122.432.299.59.53l.082-.621h.76v4.882c0 .64-.179 1.144-.536 1.51-.356.368-.864.552-1.522.552-.238 0-.495-.033-.772-.099a3.007 3.007 0 0 1-.732-.267l.233-.7c.168.089.366.162.595.22.228.058.45.087.667.087.402 0 .697-.113.885-.338.187-.226.28-.547.28-.965v-.47a1.595 1.595 0 0 1-.58.47c-.225.107-.484.16-.777.16-.607 0-1.083-.22-1.43-.658-.348-.44-.522-1.014-.522-1.724v-.096zm.9.096c0 .497.106.896.316 1.198.21.302.53.453.96.453.271 0 .498-.062.681-.186.183-.123.334-.298.453-.523v-2.277a1.397 1.397 0 0 0-.453-.5 1.187 1.187 0 0 0-.672-.185c-.43 0-.751.18-.964.539-.214.36-.32.821-.32 1.385v.096zM143.552 48.016c-.689 0-1.236-.23-1.643-.688-.407-.459-.61-1.054-.61-1.785v-.201c0-.704.209-1.29.628-1.758.419-.468.915-.702 1.488-.702.664 0 1.168.201 1.51.604.344.402.515.938.515 1.609v.562h-3.21l-.013.023c.01.475.13.866.361 1.173.232.306.557.459.974.459.305 0 .572-.043.802-.13.23-.087.43-.207.597-.36l.352.586a2.16 2.16 0 0 1-.702.432c-.29.117-.64.176-1.049.176zm-.137-4.425c-.302 0-.56.127-.773.381-.213.255-.344.574-.393.958l.01.023h2.28v-.119c0-.353-.094-.649-.283-.887-.189-.237-.47-.356-.841-.356zM145.96 47.344l.746-.128v-3.534l-.746-.128v-.58h1.55l.064.736c.165-.263.371-.466.62-.61.248-.146.53-.218.848-.218.533 0 .946.156 1.239.469.292.312.438.794.438 1.447v2.418l.746.128v.576h-2.391v-.576l.745-.128v-2.4c0-.436-.086-.745-.258-.928-.173-.183-.435-.274-.789-.274-.26 0-.488.062-.688.187-.2.125-.359.296-.478.512v2.903l.745.128v.576h-2.39v-.576zM151.884 47.344l.745-.128v-3.534l-.745-.128v-.58h1.646v4.242l.745.128v.576h-2.39v-.576zm1.646-5.637h-.9v-.919h.9v.92zM158.265 47.189a1.67 1.67 0 0 1-.6.612 1.65 1.65 0 0 1-.849.215c-.536 0-.955-.172-1.257-.517-.302-.344-.453-.88-.453-1.609v-2.208l-.566-.128v-.58h1.467v2.925c0 .528.078.89.233 1.088.156.198.398.298.727.298.32 0 .584-.065.793-.195.209-.13.367-.313.473-.55v-2.858l-.663-.128v-.58h1.564v4.242l.567.128v.576h-1.376l-.06-.731zM163.965 44.528h-.676l-.147-.594a1.219 1.219 0 0 0-.413-.25 1.595 1.595 0 0 0-.565-.093c-.32 0-.558.07-.713.21a.66.66 0 0 0-.233.507c0 .195.068.35.205.462.138.113.416.214.837.302.625.134 1.09.316 1.394.546a1.1 1.1 0 0 1 .458.926c0 .439-.178.794-.533 1.065-.355.271-.82.407-1.392.407-.375 0-.712-.043-1.01-.13a2.69 2.69 0 0 1-.8-.377l-.005-1.13h.677l.169.663a.94.94 0 0 0 .423.206c.178.043.36.064.546.064.32 0 .57-.065.752-.194.181-.13.272-.3.272-.51a.613.613 0 0 0-.226-.49c-.151-.127-.437-.238-.858-.333-.6-.131-1.053-.31-1.357-.535a1.079 1.079 0 0 1-.457-.914c0-.402.171-.745.514-1.029.343-.283.788-.425 1.337-.425.375 0 .712.049 1.01.146.299.098.547.234.746.407l.045 1.093z"/>
        </g>
    </g>
</svg>
