<svg width="25" height="16" viewBox="0 0 25 16" xmlns="http://www.w3.org/2000/svg">
    <path d="M.992 8.36c-.001.156.032.31.1.463.067.153.166.291.298.415l4.928 4.42c.241.225.506.332.794.323a.98.98 0 0 0 .734-.363 1.08 1.08 0 0 0 .274-.802 1.131 1.131 0 0 0-.382-.77L3.612 8.359l4.126-3.686c.234-.219.362-.477.382-.774.021-.298-.07-.564-.274-.799a.98.98 0 0 0-.734-.363c-.288-.009-.553.099-.794.323L1.39 7.476a1.296 1.296 0 0 0-.299.418c-.067.154-.1.309-.099.465zm9.354 7.596c.301.09.577.06.828-.09.25-.15.42-.383.511-.698l3.809-13.03c.089-.3.067-.58-.066-.838a.997.997 0 0 0-.65-.514 1.014 1.014 0 0 0-.816.076c-.247.139-.418.376-.512.713l-3.793 12.98c-.092.32-.077.611.045.874.121.263.336.439.644.527zm13.755-7.597a1.129 1.129 0 0 0-.098-.465 1.279 1.279 0 0 0-.297-.418L18.78 3.06c-.241-.224-.506-.332-.794-.323a.98.98 0 0 0-.734.363c-.207.235-.3.501-.28.799.021.297.148.555.38.774l4.134 3.686-4.134 3.687a1.135 1.135 0 0 0-.38.77c-.02.297.073.564.28.802a.98.98 0 0 0 .734.363c.288.01.553-.098.794-.322l4.926-4.421c.131-.124.23-.262.297-.415.067-.152.1-.307.098-.464z" fill="#00495D" fill-rule="nonzero"/>
</svg>
